<svg width="34" height="34" viewBox="0 0 34 34" fill="none" xmlns="http://www.w3.org/2000/svg">
<path d="M17.0001 0.000183105C7.62595 0.000183105 0 7.62661 0 17.0007C0.000789028 26.3739 7.62706 33.9999 17.0001 33.9999C26.3739 33.9999 34.0002 26.3741 34.0002 17.0006C34 7.62661 26.3739 0.000183105 17.0001 0.000183105ZM17.0001 2.36727C20.4751 2.36727 23.6704 3.58568 26.1831 5.6168L5.61677 26.183C3.58597 23.6704 2.3674 20.4753 2.36708 17.0006C2.36708 8.93182 8.93148 2.36727 17.0001 2.36727ZM17.0001 31.6328C13.2572 31.6328 9.8387 30.2195 7.24817 27.8994L27.8994 7.24819C30.2196 9.83873 31.6329 13.2576 31.6329 17.0007C31.6329 25.0689 25.0685 31.6328 17.0001 31.6328Z" fill="#CB3D3D"/>
</svg>
