<svg width="168" height="22" viewBox="0 0 168 22" fill="none" xmlns="http://www.w3.org/2000/svg">
<path d="M0.53125 19.8516C0.515625 19.5391 0.519531 19.2227 0.542969 18.9023C0.566406 18.582 0.582031 18.2461 0.589844 17.8945L0.320312 4.40625C0.320312 3.88281 0.410156 3.48438 0.589844 3.21094C0.777344 2.92969 1.03906 2.78906 1.375 2.78906C1.67969 2.78906 1.91797 2.79688 2.08984 2.8125C2.26172 2.82812 2.41406 2.84375 2.54688 2.85938C2.625 2.875 2.70312 2.88281 2.78125 2.88281C2.85938 2.88281 2.94141 2.88281 3.02734 2.88281H9.49609C10.1523 2.88281 10.6133 2.97266 10.8789 3.15234C11.1523 3.33203 11.2891 3.62109 11.2891 4.01953C11.2891 4.29297 11.25 4.51562 11.1719 4.6875C11.1016 4.85938 10.9922 4.99609 10.8438 5.09766C10.6953 5.19922 10.5078 5.26953 10.2812 5.30859C10.0625 5.33984 9.80469 5.35547 9.50781 5.35547L3.05078 5.34375L3.12109 9.79688C3.98828 9.79688 4.76172 9.79688 5.44141 9.79688C6.12891 9.78906 6.73828 9.78125 7.26953 9.77344C7.80859 9.76562 8.27734 9.75781 8.67578 9.75C9.08203 9.73438 9.4375 9.72266 9.74219 9.71484C9.82031 9.71484 9.89453 9.71484 9.96484 9.71484C10.0352 9.70703 10.1016 9.70312 10.1641 9.70312C10.2969 9.69531 10.4297 9.69141 10.5625 9.69141C10.7031 9.69141 10.8164 9.69141 10.9023 9.69141C11.1133 9.69141 11.3008 9.73438 11.4648 9.82031C11.6289 9.89844 11.7656 10.0039 11.875 10.1367C11.9922 10.2617 12.0781 10.4023 12.1328 10.5586C12.1953 10.707 12.2266 10.8477 12.2266 10.9805C12.2266 11.3945 12.0859 11.7031 11.8047 11.9062C11.5234 12.1016 11.168 12.1992 10.7383 12.1992L3.12109 12.2109V18.1055C3.12109 18.2617 3.13281 18.418 3.15625 18.5742C3.1875 18.7227 3.21875 18.875 3.25 19.0312C3.28906 19.1797 3.32422 19.332 3.35547 19.4883C3.38672 19.6445 3.40234 19.8047 3.40234 19.9688C3.40234 20.1719 3.37891 20.3594 3.33203 20.5312C3.28516 20.6953 3.19922 20.8398 3.07422 20.9648C2.95703 21.082 2.79688 21.1719 2.59375 21.2344C2.39062 21.3047 2.13281 21.3398 1.82031 21.3398C1.39844 21.3398 1.07812 21.2227 0.859375 20.9883C0.640625 20.7461 0.53125 20.3672 0.53125 19.8516Z" fill="url(#paint0_linear_1_14)"/>
<path d="M19.0938 4.85156C18.9062 4.9375 18.7109 4.98047 18.5078 4.98047C18.3047 4.97266 18.1172 4.92969 17.9453 4.85156C17.7812 4.76562 17.6367 4.64453 17.5117 4.48828C17.3867 4.33203 17.3086 4.14453 17.2773 3.92578C17.2539 3.77734 17.2578 3.60938 17.2891 3.42188C17.3281 3.22656 17.375 3.03125 17.4297 2.83594C17.4922 2.63281 17.5469 2.4375 17.5938 2.25C17.6484 2.05469 17.6836 1.87891 17.6992 1.72266C17.7227 1.37109 17.8281 1.07812 18.0156 0.84375C18.2031 0.609375 18.4844 0.464844 18.8594 0.410156C19.1328 0.363281 19.3906 0.378906 19.6328 0.457031C19.875 0.535156 20.0547 0.707031 20.1719 0.972656C20.2109 1.05859 20.2422 1.16016 20.2656 1.27734C20.2969 1.38672 20.3203 1.48438 20.3359 1.57031C20.3438 1.64844 20.3398 1.74609 20.3242 1.86328C20.3164 1.98047 20.2969 2.10547 20.2656 2.23828C20.2344 2.36328 20.1953 2.49219 20.1484 2.625C20.1094 2.75 20.0703 2.85938 20.0312 2.95312C19.9688 3.08594 19.9258 3.23047 19.9023 3.38672C19.8867 3.53516 19.8672 3.67188 19.8438 3.79688C19.8203 3.92188 19.7969 4.03516 19.7734 4.13672C19.75 4.23828 19.7109 4.33203 19.6562 4.41797C19.6094 4.50391 19.5391 4.58203 19.4453 4.65234C19.3594 4.72266 19.2422 4.78906 19.0938 4.85156ZM17.0898 20.1211C17.0898 19.9258 17.0977 19.7617 17.1133 19.6289C17.1367 19.4961 17.1562 19.3516 17.1719 19.1953C17.1953 19.0312 17.2148 18.8398 17.2305 18.6211C17.2539 18.4023 17.2656 18.1055 17.2656 17.7305C17.2656 16.332 17.2617 14.9453 17.2539 13.5703C17.2461 12.1875 17.2266 10.7266 17.1953 9.1875C17.0781 9.19531 16.9453 9.20312 16.7969 9.21094C16.6484 9.21875 16.4922 9.22656 16.3281 9.23438C16.1719 9.23438 16.0195 9.23828 15.8711 9.24609C15.7227 9.24609 15.5898 9.24609 15.4727 9.24609C15.332 9.24609 15.1875 9.22656 15.0391 9.1875C14.8984 9.14062 14.7695 9.06641 14.6523 8.96484C14.5352 8.86328 14.4375 8.73438 14.3594 8.57812C14.2812 8.41406 14.2422 8.21484 14.2422 7.98047C14.2422 7.56641 14.3516 7.25391 14.5703 7.04297C14.7969 6.82422 15.0625 6.71484 15.3672 6.71484C15.6641 6.71484 15.957 6.73047 16.2461 6.76172C16.543 6.78516 16.832 6.79688 17.1133 6.79688C17.4023 6.79688 17.6914 6.78516 17.9805 6.76172C18.2695 6.73047 18.543 6.71484 18.8008 6.71484C19.1992 6.71484 19.4844 6.82031 19.6562 7.03125C19.8281 7.24219 19.9141 7.53516 19.9141 7.91016C19.9141 8.23047 19.8867 8.54688 19.832 8.85938C19.7773 9.16406 19.75 9.49219 19.75 9.84375C19.75 10.5469 19.7461 11.2539 19.7383 11.9648C19.7305 12.6758 19.7227 13.3984 19.7148 14.1328C19.7148 14.8672 19.7109 15.6172 19.7031 16.3828C19.7031 17.1484 19.7109 17.9375 19.7266 18.75C19.8516 18.7422 19.9648 18.7227 20.0664 18.6914C20.168 18.6602 20.2656 18.6289 20.3594 18.5977C20.4531 18.5586 20.5508 18.5273 20.6523 18.5039C20.7617 18.4727 20.8828 18.457 21.0156 18.457C21.2188 18.457 21.3828 18.4805 21.5078 18.5273C21.6406 18.5742 21.7461 18.6406 21.8242 18.7266C21.9023 18.8047 21.9609 18.9062 22 19.0312C22.0391 19.1484 22.0742 19.2773 22.1055 19.418C22.1602 19.7852 22.0703 20.0781 21.8359 20.2969C21.6016 20.5156 21.2812 20.6875 20.875 20.8125C20.6406 20.875 20.3984 20.9375 20.1484 21C19.9062 21.0625 19.6758 21.1172 19.457 21.1641C19.2383 21.2188 19.0391 21.2617 18.8594 21.293C18.6797 21.3242 18.5391 21.3398 18.4375 21.3398C17.9766 21.3398 17.6367 21.2305 17.418 21.0117C17.1992 20.8008 17.0898 20.5039 17.0898 20.1211Z" fill="url(#paint1_linear_1_14)"/>
<path d="M26.5352 20.1328C26.5352 19.9922 26.5391 19.8477 26.5469 19.6992C26.5625 19.5508 26.5781 19.4062 26.5938 19.2656C26.6172 19.0547 26.6406 18.8242 26.6641 18.5742C26.6875 18.3242 26.6992 18.043 26.6992 17.7305C26.6992 17.1211 26.6953 16.5469 26.6875 16.0078C26.6875 15.4609 26.6797 14.8984 26.6641 14.3203C26.6641 14.3047 26.6641 14.2812 26.6641 14.25C26.6641 14.2109 26.6602 14.1367 26.6523 14.0273C26.6523 13.918 26.6484 13.7578 26.6406 13.5469C26.6406 13.3359 26.6367 13.0391 26.6289 12.6562C26.6211 12.2734 26.6094 11.7969 26.5938 11.2266C26.5859 10.6484 26.5742 9.94531 26.5586 9.11719C26.457 9.13281 26.3359 9.14844 26.1953 9.16406C26.0625 9.17188 25.9023 9.17578 25.7148 9.17578C25.5742 9.17578 25.4297 9.15234 25.2812 9.10547C25.1406 9.05859 25.0078 8.98828 24.8828 8.89453C24.7656 8.79297 24.668 8.66406 24.5898 8.50781C24.5195 8.34375 24.4844 8.14453 24.4844 7.91016C24.4844 7.48828 24.5898 7.17188 24.8008 6.96094C25.0195 6.74219 25.2852 6.63281 25.5977 6.63281C25.7227 6.63281 25.8438 6.64844 25.9609 6.67969C26.0781 6.71094 26.2031 6.72656 26.3359 6.72656C26.4922 6.72656 26.6523 6.72266 26.8164 6.71484C26.9805 6.70703 27.1406 6.69531 27.2969 6.67969C27.4688 6.66406 27.6367 6.65234 27.8008 6.64453C27.9727 6.63672 28.125 6.63281 28.2578 6.63281C28.5781 6.63281 28.8438 6.73828 29.0547 6.94922C29.2656 7.16016 29.3711 7.45703 29.3711 7.83984C29.3711 7.93359 29.3672 8.04297 29.3594 8.16797C29.3594 8.29297 29.3516 8.41406 29.3359 8.53125C29.6016 8.27344 29.9023 8.02734 30.2383 7.79297C30.5742 7.55859 30.9375 7.35156 31.3281 7.17188C31.7266 6.98438 32.1523 6.83594 32.6055 6.72656C33.0586 6.61719 33.5391 6.5625 34.0469 6.5625C35.0391 6.5625 35.9062 6.72656 36.6484 7.05469C37.3984 7.375 38.0234 7.84375 38.5234 8.46094C39.0312 9.07031 39.4102 9.82031 39.6602 10.7109C39.918 11.6016 40.0469 12.6133 40.0469 13.7461C40.0469 14.0898 40.0234 14.4492 39.9766 14.8242C39.9297 15.1992 39.8633 15.5742 39.7773 15.9492C39.6992 16.3242 39.6016 16.6992 39.4844 17.0742C39.375 17.4414 39.25 17.7891 39.1094 18.1172C39.2891 18.0625 39.4609 18.0156 39.625 17.9766C39.7891 17.9375 39.9258 17.9102 40.0352 17.8945C40.9102 17.8086 41.3477 18.207 41.3477 19.0898C41.3477 19.1992 41.3359 19.3203 41.3125 19.4531C41.2891 19.5781 41.2422 19.7031 41.1719 19.8281C41.1016 19.9453 41.0039 20.0586 40.8789 20.168C40.7539 20.2695 40.5938 20.3555 40.3984 20.4258L39.1328 20.7188C38.7422 20.8359 38.4258 20.9336 38.1836 21.0117C37.9492 21.0977 37.75 21.1641 37.5859 21.2109C37.4297 21.2656 37.2969 21.3008 37.1875 21.3164C37.0781 21.3398 36.957 21.3477 36.8242 21.3398C36.6367 21.3398 36.4727 21.293 36.332 21.1992C36.1914 21.1133 36.0742 21.0039 35.9805 20.8711C35.8867 20.7305 35.8164 20.5781 35.7695 20.4141C35.7227 20.25 35.6992 20.0898 35.6992 19.9336C35.6992 19.6836 35.7344 19.4297 35.8047 19.1719C35.875 18.9141 36 18.6797 36.1797 18.4688C36.3984 18.1875 36.582 17.8711 36.7305 17.5195C36.8867 17.168 37.0117 16.7891 37.1055 16.3828C37.1992 15.9766 37.2656 15.5508 37.3047 15.1055C37.3516 14.6602 37.375 14.207 37.375 13.7461C37.375 13.2148 37.3164 12.6758 37.1992 12.1289C37.0898 11.5742 36.8984 11.0742 36.625 10.6289C36.3594 10.1758 36.0039 9.80859 35.5586 9.52734C35.1211 9.23828 34.5703 9.09375 33.9062 9.09375C33.4453 9.09375 32.9922 9.16797 32.5469 9.31641C32.1094 9.45703 31.6875 9.64844 31.2812 9.89062C30.8828 10.125 30.5078 10.3945 30.1562 10.6992C29.8047 11.0039 29.4961 11.3164 29.2305 11.6367C29.2227 11.9883 29.2148 12.3438 29.207 12.7031C29.207 13.0547 29.207 13.4102 29.207 13.7695C29.1914 14.3789 29.1797 14.9844 29.1719 15.5859C29.1641 16.1875 29.1602 16.7969 29.1602 17.4141C29.1602 17.5938 29.1602 17.7773 29.1602 17.9648C29.1602 18.1445 29.168 18.3359 29.1836 18.5391L29.5 18.4453C29.5859 18.4219 29.668 18.4023 29.7461 18.3867C29.832 18.3633 29.9062 18.3516 29.9688 18.3516C30.3906 18.3516 30.7109 18.457 30.9297 18.668C31.1484 18.8711 31.2578 19.1719 31.2578 19.5703C31.2578 19.8672 31.1992 20.1055 31.082 20.2852C30.9648 20.457 30.8164 20.5938 30.6367 20.6953C30.457 20.7891 30.2578 20.8555 30.0391 20.8945C29.8281 20.9336 29.6211 20.9648 29.418 20.9883C29.3086 21.0039 29.2031 21.0156 29.1016 21.0234C29 21.0391 28.9141 21.0586 28.8438 21.082C28.5938 21.1523 28.3789 21.2109 28.1992 21.2578C28.0195 21.3125 27.8633 21.3398 27.7305 21.3398C27.2695 21.3398 26.9531 21.2344 26.7812 21.0234C26.6172 20.8125 26.5352 20.5156 26.5352 20.1328Z" fill="url(#paint2_linear_1_14)"/>
<path d="M43.6211 13.9688C43.6211 12.9062 43.7969 11.9258 44.1484 11.0273C44.5078 10.1211 45 9.33984 45.625 8.68359C46.2578 8.01953 47.0039 7.5 47.8633 7.125C48.7227 6.75 49.6562 6.5625 50.6641 6.5625C51.1172 6.5625 51.5664 6.60938 52.0117 6.70312C52.457 6.78906 52.8789 6.92188 53.2773 7.10156C53.6836 7.27344 54.0586 7.48828 54.4023 7.74609C54.7461 8.00391 55.0469 8.30078 55.3047 8.63672C55.3047 8.43359 55.3047 8.14453 55.3047 7.76953C55.3047 7.39453 55.3008 6.94922 55.293 6.43359C55.293 5.91797 55.2891 5.34375 55.2812 4.71094C55.2734 4.07812 55.2656 3.40625 55.2578 2.69531H54.2617C54.082 2.69531 53.9062 2.71484 53.7344 2.75391C53.5625 2.79297 53.3789 2.8125 53.1836 2.8125C53.043 2.8125 52.8984 2.78125 52.75 2.71875C52.6094 2.64844 52.4805 2.55469 52.3633 2.4375C52.2539 2.3125 52.1602 2.16406 52.082 1.99219C52.0117 1.8125 51.9766 1.60938 51.9766 1.38281C51.9766 0.976562 52.082 0.664062 52.293 0.445312C52.5039 0.226562 52.7695 0.117188 53.0898 0.117188C53.168 0.117188 53.2617 0.121094 53.3711 0.128906C53.4805 0.128906 53.6055 0.148438 53.7461 0.1875C54.2617 0.195312 54.7812 0.191406 55.3047 0.175781C55.8281 0.152344 56.3906 0.136719 56.9922 0.128906C57.3203 0.128906 57.5781 0.242188 57.7656 0.46875C57.9531 0.695312 58.0469 0.996094 58.0469 1.37109C58.0469 1.63672 58.0117 1.84375 57.9414 1.99219C57.9258 2.5 57.9141 3.12891 57.9062 3.87891C57.8984 4.62109 57.8906 5.41406 57.8828 6.25781C57.875 7.10156 57.8672 7.96094 57.8594 8.83594C57.8594 9.71094 57.8555 10.5312 57.8477 11.2969C57.8477 12.0547 57.8477 12.7266 57.8477 13.3125C57.8477 13.8984 57.8477 14.3242 57.8477 14.5898C57.8477 15.3555 57.8516 16.0469 57.8594 16.6641C57.875 17.2734 57.8984 17.7539 57.9297 18.1055L58.1406 17.9766C58.3047 17.8828 58.4609 17.8008 58.6094 17.7305C58.7656 17.6602 58.9336 17.6172 59.1133 17.6016C59.2461 17.5859 59.3828 17.6016 59.5234 17.6484C59.6641 17.6875 59.793 17.7578 59.9102 17.8594C60.0273 17.9531 60.125 18.082 60.2031 18.2461C60.2812 18.4102 60.3203 18.6094 60.3203 18.8438C60.3203 19.1719 60.2305 19.4375 60.0508 19.6406C59.8789 19.8359 59.6992 19.9727 59.5117 20.0508C59.3242 20.1367 59.1445 20.2266 58.9727 20.3203C58.8008 20.4062 58.625 20.4961 58.4453 20.5898C58.1797 20.7305 57.9219 20.8633 57.6719 20.9883C57.4297 21.1133 57.2148 21.1758 57.0273 21.1758C56.6523 21.1758 56.3477 21 56.1133 20.6484C55.8867 20.2891 55.7148 19.8125 55.5977 19.2188C55.2852 19.5391 54.9297 19.8281 54.5312 20.0859C54.1328 20.3438 53.707 20.5664 53.2539 20.7539C52.8008 20.9414 52.3242 21.0859 51.8242 21.1875C51.332 21.2891 50.8359 21.3398 50.3359 21.3398C49.3203 21.3398 48.3984 21.1484 47.5703 20.7656C46.75 20.3828 46.0469 19.8594 45.4609 19.1953C44.875 18.5312 44.4219 17.7539 44.1016 16.8633C43.7812 15.9648 43.6211 15 43.6211 13.9688ZM46.2344 13.9688C46.2344 14.5859 46.332 15.1875 46.5273 15.7734C46.7227 16.3516 47.0039 16.8672 47.3711 17.3203C47.7461 17.7734 48.1992 18.1367 48.7305 18.4102C49.2617 18.6836 49.8633 18.8203 50.5352 18.8203C51.0508 18.8203 51.5664 18.7383 52.082 18.5742C52.5977 18.4023 53.0703 18.1641 53.5 17.8594C53.9375 17.5469 54.3164 17.1719 54.6367 16.7344C54.957 16.2891 55.1758 15.7891 55.293 15.2344C55.293 14.9141 55.293 14.6523 55.293 14.4492C55.293 14.2461 55.2891 14.0742 55.2812 13.9336C55.2812 13.7852 55.2812 13.6523 55.2812 13.5352C55.2812 13.4102 55.2812 13.2695 55.2812 13.1133C55.1562 12.5508 54.9531 12.0273 54.6719 11.543C54.3984 11.0508 54.0625 10.625 53.6641 10.2656C53.2656 9.90625 52.8164 9.625 52.3164 9.42188C51.8242 9.21094 51.3008 9.10547 50.7461 9.10547C50.0977 9.10547 49.4961 9.22266 48.9414 9.45703C48.3945 9.69141 47.918 10.0234 47.5117 10.4531C47.1133 10.875 46.8008 11.3867 46.5742 11.9883C46.3477 12.582 46.2344 13.2422 46.2344 13.9688Z" fill="url(#paint3_linear_1_14)"/>
<path d="M63.25 19.8516C63.2344 19.5391 63.2383 19.2227 63.2617 18.9023C63.2852 18.582 63.3008 18.2461 63.3086 17.8945L63.0391 4.40625C63.0391 3.88281 63.1289 3.48438 63.3086 3.21094C63.4961 2.92969 63.7578 2.78906 64.0938 2.78906C64.3984 2.78906 64.6367 2.79688 64.8086 2.8125C64.9805 2.82812 65.1328 2.84375 65.2656 2.85938C65.3438 2.875 65.4219 2.88281 65.5 2.88281C65.5781 2.88281 65.6602 2.88281 65.7461 2.88281H72.2148C72.8711 2.88281 73.332 2.97266 73.5977 3.15234C73.8711 3.33203 74.0078 3.62109 74.0078 4.01953C74.0078 4.29297 73.9688 4.51562 73.8906 4.6875C73.8203 4.85938 73.7109 4.99609 73.5625 5.09766C73.4141 5.19922 73.2266 5.26953 73 5.30859C72.7812 5.33984 72.5234 5.35547 72.2266 5.35547L65.7695 5.34375L65.8398 9.79688C66.707 9.79688 67.4805 9.79688 68.1602 9.79688C68.8477 9.78906 69.457 9.78125 69.9883 9.77344C70.5273 9.76562 70.9961 9.75781 71.3945 9.75C71.8008 9.73438 72.1562 9.72266 72.4609 9.71484C72.5391 9.71484 72.6133 9.71484 72.6836 9.71484C72.7539 9.70703 72.8203 9.70312 72.8828 9.70312C73.0156 9.69531 73.1484 9.69141 73.2812 9.69141C73.4219 9.69141 73.5352 9.69141 73.6211 9.69141C73.832 9.69141 74.0195 9.73438 74.1836 9.82031C74.3477 9.89844 74.4844 10.0039 74.5938 10.1367C74.7109 10.2617 74.7969 10.4023 74.8516 10.5586C74.9141 10.707 74.9453 10.8477 74.9453 10.9805C74.9453 11.3945 74.8047 11.7031 74.5234 11.9062C74.2422 12.1016 73.8867 12.1992 73.457 12.1992L65.8398 12.2109V18.1055C65.8398 18.2617 65.8516 18.418 65.875 18.5742C65.9062 18.7227 65.9375 18.875 65.9688 19.0312C66.0078 19.1797 66.043 19.332 66.0742 19.4883C66.1055 19.6445 66.1211 19.8047 66.1211 19.9688C66.1211 20.1719 66.0977 20.3594 66.0508 20.5312C66.0039 20.6953 65.918 20.8398 65.793 20.9648C65.6758 21.082 65.5156 21.1719 65.3125 21.2344C65.1094 21.3047 64.8516 21.3398 64.5391 21.3398C64.1172 21.3398 63.7969 21.2227 63.5781 20.9883C63.3594 20.7461 63.25 20.3672 63.25 19.8516Z" fill="url(#paint4_linear_1_14)"/>
<path d="M78.6719 19.957C78.6719 19.6836 78.6758 19.4102 78.6836 19.1367C78.6914 18.8633 78.6992 18.5625 78.707 18.2344V9.19922C78.707 8.98047 78.6836 8.76172 78.6367 8.54297C78.5898 8.31641 78.5664 8.08203 78.5664 7.83984C78.5664 7.42578 78.7148 7.10938 79.0117 6.89062C79.3086 6.67188 79.7109 6.5625 80.2188 6.5625C80.4375 6.5625 80.6289 6.60156 80.793 6.67969C80.957 6.75 81.0938 6.84375 81.2031 6.96094C81.3125 7.07812 81.3945 7.21094 81.4492 7.35938C81.5039 7.50781 81.5312 7.66016 81.5312 7.81641C81.5312 7.94922 81.5195 8.08594 81.4961 8.22656C81.4805 8.35938 81.4609 8.49219 81.4375 8.625C82.6328 8.32812 83.6484 8.05859 84.4844 7.81641C85.3281 7.57422 85.9883 7.375 86.4648 7.21875C86.5664 7.03906 86.707 6.88672 86.8867 6.76172C87.0742 6.62891 87.3164 6.5625 87.6133 6.5625C88.043 6.5625 88.3828 6.67578 88.6328 6.90234C88.8906 7.12109 89.0195 7.39844 89.0195 7.73438C89.0195 7.86719 89.0117 8.00391 88.9961 8.14453C88.9805 8.28516 88.9727 8.42578 88.9727 8.56641C88.9258 9.04297 88.9141 9.52734 88.9375 10.0195C88.9688 10.5117 89.0039 11.0078 89.043 11.5078C89.0586 11.6641 89.0664 11.832 89.0664 12.0117C89.0742 12.1836 89.0781 12.3594 89.0781 12.5391C89.0781 12.7266 89.0312 12.8828 88.9375 13.0078C88.8438 13.1328 88.7227 13.2344 88.5742 13.3125C88.4336 13.3828 88.2773 13.4336 88.1055 13.4648C87.9336 13.4961 87.7656 13.5117 87.6016 13.5117C87.3672 13.5117 87.1719 13.4727 87.0156 13.3945C86.8594 13.3086 86.7305 13.2031 86.6289 13.0781C86.5352 12.9453 86.4648 12.8008 86.418 12.6445C86.3789 12.4805 86.3594 12.3203 86.3594 12.1641C86.3594 11.8047 86.3633 11.4414 86.3711 11.0742C86.3789 10.6992 86.3867 10.2891 86.3945 9.84375C86.0977 9.91406 85.6875 10.0078 85.1641 10.125C84.6484 10.2422 84.082 10.3672 83.4648 10.5C83.1133 10.5859 82.7656 10.668 82.4219 10.7461C82.0781 10.8164 81.7305 10.8906 81.3789 10.9688V18.6211L81.7305 18.5156C81.8867 18.4609 82.0352 18.4141 82.1758 18.375C82.3164 18.3281 82.4766 18.2969 82.6562 18.2812C82.8047 18.2969 82.9492 18.332 83.0898 18.3867C83.2383 18.4414 83.3672 18.5195 83.4766 18.6211C83.5938 18.7227 83.6875 18.8516 83.7578 19.0078C83.8281 19.1562 83.8633 19.3281 83.8633 19.5234C83.8633 19.7031 83.832 19.875 83.7695 20.0391C83.7148 20.2031 83.6367 20.3516 83.5352 20.4844C83.4336 20.6094 83.3125 20.7148 83.1719 20.8008C83.0391 20.8789 82.8906 20.9219 82.7266 20.9297C82.6172 20.9453 82.4688 20.9688 82.2812 21C82.0938 21.0391 81.875 21.082 81.625 21.1289C81.2266 21.207 80.9023 21.2617 80.6523 21.293C80.4102 21.3242 80.207 21.3398 80.043 21.3398C79.8633 21.3398 79.6875 21.3086 79.5156 21.2461C79.3516 21.1914 79.207 21.1055 79.082 20.9883C78.957 20.8711 78.8555 20.7266 78.7773 20.5547C78.707 20.3828 78.6719 20.1836 78.6719 19.957Z" fill="url(#paint5_linear_1_14)"/>
<path d="M96.4844 4.85156C96.2969 4.9375 96.1016 4.98047 95.8984 4.98047C95.6953 4.97266 95.5078 4.92969 95.3359 4.85156C95.1719 4.76562 95.0273 4.64453 94.9023 4.48828C94.7773 4.33203 94.6992 4.14453 94.668 3.92578C94.6445 3.77734 94.6484 3.60938 94.6797 3.42188C94.7188 3.22656 94.7656 3.03125 94.8203 2.83594C94.8828 2.63281 94.9375 2.4375 94.9844 2.25C95.0391 2.05469 95.0742 1.87891 95.0898 1.72266C95.1133 1.37109 95.2188 1.07812 95.4062 0.84375C95.5938 0.609375 95.875 0.464844 96.25 0.410156C96.5234 0.363281 96.7812 0.378906 97.0234 0.457031C97.2656 0.535156 97.4453 0.707031 97.5625 0.972656C97.6016 1.05859 97.6328 1.16016 97.6562 1.27734C97.6875 1.38672 97.7109 1.48438 97.7266 1.57031C97.7344 1.64844 97.7305 1.74609 97.7148 1.86328C97.707 1.98047 97.6875 2.10547 97.6562 2.23828C97.625 2.36328 97.5859 2.49219 97.5391 2.625C97.5 2.75 97.4609 2.85938 97.4219 2.95312C97.3594 3.08594 97.3164 3.23047 97.293 3.38672C97.2773 3.53516 97.2578 3.67188 97.2344 3.79688C97.2109 3.92188 97.1875 4.03516 97.1641 4.13672C97.1406 4.23828 97.1016 4.33203 97.0469 4.41797C97 4.50391 96.9297 4.58203 96.8359 4.65234C96.75 4.72266 96.6328 4.78906 96.4844 4.85156ZM94.4805 20.1211C94.4805 19.9258 94.4883 19.7617 94.5039 19.6289C94.5273 19.4961 94.5469 19.3516 94.5625 19.1953C94.5859 19.0312 94.6055 18.8398 94.6211 18.6211C94.6445 18.4023 94.6562 18.1055 94.6562 17.7305C94.6562 16.332 94.6523 14.9453 94.6445 13.5703C94.6367 12.1875 94.6172 10.7266 94.5859 9.1875C94.4688 9.19531 94.3359 9.20312 94.1875 9.21094C94.0391 9.21875 93.8828 9.22656 93.7188 9.23438C93.5625 9.23438 93.4102 9.23828 93.2617 9.24609C93.1133 9.24609 92.9805 9.24609 92.8633 9.24609C92.7227 9.24609 92.5781 9.22656 92.4297 9.1875C92.2891 9.14062 92.1602 9.06641 92.043 8.96484C91.9258 8.86328 91.8281 8.73438 91.75 8.57812C91.6719 8.41406 91.6328 8.21484 91.6328 7.98047C91.6328 7.56641 91.7422 7.25391 91.9609 7.04297C92.1875 6.82422 92.4531 6.71484 92.7578 6.71484C93.0547 6.71484 93.3477 6.73047 93.6367 6.76172C93.9336 6.78516 94.2227 6.79688 94.5039 6.79688C94.793 6.79688 95.082 6.78516 95.3711 6.76172C95.6602 6.73047 95.9336 6.71484 96.1914 6.71484C96.5898 6.71484 96.875 6.82031 97.0469 7.03125C97.2188 7.24219 97.3047 7.53516 97.3047 7.91016C97.3047 8.23047 97.2773 8.54688 97.2227 8.85938C97.168 9.16406 97.1406 9.49219 97.1406 9.84375C97.1406 10.5469 97.1367 11.2539 97.1289 11.9648C97.1211 12.6758 97.1133 13.3984 97.1055 14.1328C97.1055 14.8672 97.1016 15.6172 97.0938 16.3828C97.0938 17.1484 97.1016 17.9375 97.1172 18.75C97.2422 18.7422 97.3555 18.7227 97.457 18.6914C97.5586 18.6602 97.6562 18.6289 97.75 18.5977C97.8438 18.5586 97.9414 18.5273 98.043 18.5039C98.1523 18.4727 98.2734 18.457 98.4062 18.457C98.6094 18.457 98.7734 18.4805 98.8984 18.5273C99.0312 18.5742 99.1367 18.6406 99.2148 18.7266C99.293 18.8047 99.3516 18.9062 99.3906 19.0312C99.4297 19.1484 99.4648 19.2773 99.4961 19.418C99.5508 19.7852 99.4609 20.0781 99.2266 20.2969C98.9922 20.5156 98.6719 20.6875 98.2656 20.8125C98.0312 20.875 97.7891 20.9375 97.5391 21C97.2969 21.0625 97.0664 21.1172 96.8477 21.1641C96.6289 21.2188 96.4297 21.2617 96.25 21.293C96.0703 21.3242 95.9297 21.3398 95.8281 21.3398C95.3672 21.3398 95.0273 21.2305 94.8086 21.0117C94.5898 20.8008 94.4805 20.5039 94.4805 20.1211Z" fill="url(#paint6_linear_1_14)"/>
<path d="M104.793 15.7148C104.941 16.3008 105.16 16.793 105.449 17.1914C105.746 17.582 106.078 17.8984 106.445 18.1406C106.812 18.3828 107.199 18.5586 107.605 18.668C108.02 18.7695 108.422 18.8203 108.812 18.8203C109.422 18.8203 109.965 18.7695 110.441 18.668C110.918 18.5586 111.324 18.4297 111.66 18.2812C112.004 18.125 112.281 17.9648 112.492 17.8008C112.703 17.6367 112.852 17.4922 112.938 17.3672C113.016 17.25 113.102 17.1406 113.195 17.0391C113.297 16.9297 113.402 16.8359 113.512 16.7578C113.629 16.6719 113.742 16.6055 113.852 16.5586C113.969 16.5117 114.078 16.4883 114.18 16.4883C114.57 16.4883 114.871 16.6055 115.082 16.8398C115.301 17.0664 115.41 17.375 115.41 17.7656C115.41 17.9141 115.355 18.1016 115.246 18.3281C115.137 18.5547 114.934 18.8047 114.637 19.0781C114.309 19.3828 113.941 19.6719 113.535 19.9453C113.137 20.2188 112.695 20.4609 112.211 20.6719C111.727 20.875 111.199 21.0352 110.629 21.1523C110.066 21.2773 109.457 21.3398 108.801 21.3398C108.027 21.3398 107.32 21.2344 106.68 21.0234C106.039 20.8203 105.465 20.543 104.957 20.1914C104.449 19.832 104.008 19.418 103.633 18.9492C103.258 18.4805 102.945 17.9805 102.695 17.4492C102.445 16.918 102.258 16.3711 102.133 15.8086C102.008 15.2461 101.945 14.6992 101.945 14.168C101.945 13.0117 102.133 11.9688 102.508 11.0391C102.883 10.1016 103.398 9.30078 104.055 8.63672C104.711 7.97266 105.488 7.46094 106.387 7.10156C107.285 6.74219 108.258 6.5625 109.305 6.5625C110.055 6.5625 110.758 6.67578 111.414 6.90234C112.07 7.12109 112.652 7.43359 113.16 7.83984C113.676 8.23828 114.105 8.71875 114.449 9.28125C114.801 9.83594 115.047 10.4492 115.188 11.1211C115.344 11.2539 115.457 11.4297 115.527 11.6484C115.605 11.8594 115.645 12.0703 115.645 12.2812C115.645 12.6328 115.523 12.9219 115.281 13.1484C115.047 13.3672 114.75 13.5195 114.391 13.6055C113.602 13.8086 112.812 13.9961 112.023 14.168C111.234 14.3398 110.441 14.5078 109.645 14.6719C108.848 14.8359 108.043 15.0039 107.23 15.1758C106.426 15.3477 105.613 15.5273 104.793 15.7148ZM104.594 13.5469C105.922 13.2344 107.266 12.9414 108.625 12.668C109.984 12.3945 111.367 12.0898 112.773 11.7539C112.641 11.3945 112.461 11.0547 112.234 10.7344C112.008 10.4062 111.742 10.1211 111.438 9.87891C111.133 9.63672 110.793 9.44531 110.418 9.30469C110.051 9.16406 109.652 9.09375 109.223 9.09375C108.559 9.09375 107.953 9.20312 107.406 9.42188C106.867 9.63281 106.398 9.93359 106 10.3242C105.602 10.707 105.281 11.1758 105.039 11.7305C104.797 12.2773 104.648 12.8828 104.594 13.5469Z" fill="url(#paint7_linear_1_14)"/>
<path d="M120.355 20.1328C120.355 19.9922 120.359 19.8477 120.367 19.6992C120.383 19.5508 120.398 19.4062 120.414 19.2656C120.438 19.0547 120.461 18.8242 120.484 18.5742C120.508 18.3242 120.52 18.043 120.52 17.7305C120.52 17.1211 120.516 16.5469 120.508 16.0078C120.508 15.4609 120.5 14.8984 120.484 14.3203C120.484 14.3047 120.484 14.2812 120.484 14.25C120.484 14.2109 120.48 14.1367 120.473 14.0273C120.473 13.918 120.469 13.7578 120.461 13.5469C120.461 13.3359 120.457 13.0391 120.449 12.6562C120.441 12.2734 120.43 11.7969 120.414 11.2266C120.406 10.6484 120.395 9.94531 120.379 9.11719C120.277 9.13281 120.156 9.14844 120.016 9.16406C119.883 9.17188 119.723 9.17578 119.535 9.17578C119.395 9.17578 119.25 9.15234 119.102 9.10547C118.961 9.05859 118.828 8.98828 118.703 8.89453C118.586 8.79297 118.488 8.66406 118.41 8.50781C118.34 8.34375 118.305 8.14453 118.305 7.91016C118.305 7.48828 118.41 7.17188 118.621 6.96094C118.84 6.74219 119.105 6.63281 119.418 6.63281C119.543 6.63281 119.664 6.64844 119.781 6.67969C119.898 6.71094 120.023 6.72656 120.156 6.72656C120.312 6.72656 120.473 6.72266 120.637 6.71484C120.801 6.70703 120.961 6.69531 121.117 6.67969C121.289 6.66406 121.457 6.65234 121.621 6.64453C121.793 6.63672 121.945 6.63281 122.078 6.63281C122.398 6.63281 122.664 6.73828 122.875 6.94922C123.086 7.16016 123.191 7.45703 123.191 7.83984C123.191 7.93359 123.188 8.04297 123.18 8.16797C123.18 8.29297 123.172 8.41406 123.156 8.53125C123.422 8.27344 123.723 8.02734 124.059 7.79297C124.395 7.55859 124.758 7.35156 125.148 7.17188C125.547 6.98438 125.973 6.83594 126.426 6.72656C126.879 6.61719 127.359 6.5625 127.867 6.5625C128.859 6.5625 129.727 6.72656 130.469 7.05469C131.219 7.375 131.844 7.84375 132.344 8.46094C132.852 9.07031 133.23 9.82031 133.48 10.7109C133.738 11.6016 133.867 12.6133 133.867 13.7461C133.867 14.0898 133.844 14.4492 133.797 14.8242C133.75 15.1992 133.684 15.5742 133.598 15.9492C133.52 16.3242 133.422 16.6992 133.305 17.0742C133.195 17.4414 133.07 17.7891 132.93 18.1172C133.109 18.0625 133.281 18.0156 133.445 17.9766C133.609 17.9375 133.746 17.9102 133.855 17.8945C134.73 17.8086 135.168 18.207 135.168 19.0898C135.168 19.1992 135.156 19.3203 135.133 19.4531C135.109 19.5781 135.062 19.7031 134.992 19.8281C134.922 19.9453 134.824 20.0586 134.699 20.168C134.574 20.2695 134.414 20.3555 134.219 20.4258L132.953 20.7188C132.562 20.8359 132.246 20.9336 132.004 21.0117C131.77 21.0977 131.57 21.1641 131.406 21.2109C131.25 21.2656 131.117 21.3008 131.008 21.3164C130.898 21.3398 130.777 21.3477 130.645 21.3398C130.457 21.3398 130.293 21.293 130.152 21.1992C130.012 21.1133 129.895 21.0039 129.801 20.8711C129.707 20.7305 129.637 20.5781 129.59 20.4141C129.543 20.25 129.52 20.0898 129.52 19.9336C129.52 19.6836 129.555 19.4297 129.625 19.1719C129.695 18.9141 129.82 18.6797 130 18.4688C130.219 18.1875 130.402 17.8711 130.551 17.5195C130.707 17.168 130.832 16.7891 130.926 16.3828C131.02 15.9766 131.086 15.5508 131.125 15.1055C131.172 14.6602 131.195 14.207 131.195 13.7461C131.195 13.2148 131.137 12.6758 131.02 12.1289C130.91 11.5742 130.719 11.0742 130.445 10.6289C130.18 10.1758 129.824 9.80859 129.379 9.52734C128.941 9.23828 128.391 9.09375 127.727 9.09375C127.266 9.09375 126.812 9.16797 126.367 9.31641C125.93 9.45703 125.508 9.64844 125.102 9.89062C124.703 10.125 124.328 10.3945 123.977 10.6992C123.625 11.0039 123.316 11.3164 123.051 11.6367C123.043 11.9883 123.035 12.3438 123.027 12.7031C123.027 13.0547 123.027 13.4102 123.027 13.7695C123.012 14.3789 123 14.9844 122.992 15.5859C122.984 16.1875 122.98 16.7969 122.98 17.4141C122.98 17.5938 122.98 17.7773 122.98 17.9648C122.98 18.1445 122.988 18.3359 123.004 18.5391L123.32 18.4453C123.406 18.4219 123.488 18.4023 123.566 18.3867C123.652 18.3633 123.727 18.3516 123.789 18.3516C124.211 18.3516 124.531 18.457 124.75 18.668C124.969 18.8711 125.078 19.1719 125.078 19.5703C125.078 19.8672 125.02 20.1055 124.902 20.2852C124.785 20.457 124.637 20.5938 124.457 20.6953C124.277 20.7891 124.078 20.8555 123.859 20.8945C123.648 20.9336 123.441 20.9648 123.238 20.9883C123.129 21.0039 123.023 21.0156 122.922 21.0234C122.82 21.0391 122.734 21.0586 122.664 21.082C122.414 21.1523 122.199 21.2109 122.02 21.2578C121.84 21.3125 121.684 21.3398 121.551 21.3398C121.09 21.3398 120.773 21.2344 120.602 21.0234C120.438 20.8125 120.355 20.5156 120.355 20.1328Z" fill="url(#paint8_linear_1_14)"/>
<path d="M137.441 13.9688C137.441 12.9062 137.617 11.9258 137.969 11.0273C138.328 10.1211 138.82 9.33984 139.445 8.68359C140.078 8.01953 140.824 7.5 141.684 7.125C142.543 6.75 143.477 6.5625 144.484 6.5625C144.938 6.5625 145.387 6.60938 145.832 6.70312C146.277 6.78906 146.699 6.92188 147.098 7.10156C147.504 7.27344 147.879 7.48828 148.223 7.74609C148.566 8.00391 148.867 8.30078 149.125 8.63672C149.125 8.43359 149.125 8.14453 149.125 7.76953C149.125 7.39453 149.121 6.94922 149.113 6.43359C149.113 5.91797 149.109 5.34375 149.102 4.71094C149.094 4.07812 149.086 3.40625 149.078 2.69531H148.082C147.902 2.69531 147.727 2.71484 147.555 2.75391C147.383 2.79297 147.199 2.8125 147.004 2.8125C146.863 2.8125 146.719 2.78125 146.57 2.71875C146.43 2.64844 146.301 2.55469 146.184 2.4375C146.074 2.3125 145.98 2.16406 145.902 1.99219C145.832 1.8125 145.797 1.60938 145.797 1.38281C145.797 0.976562 145.902 0.664062 146.113 0.445312C146.324 0.226562 146.59 0.117188 146.91 0.117188C146.988 0.117188 147.082 0.121094 147.191 0.128906C147.301 0.128906 147.426 0.148438 147.566 0.1875C148.082 0.195312 148.602 0.191406 149.125 0.175781C149.648 0.152344 150.211 0.136719 150.812 0.128906C151.141 0.128906 151.398 0.242188 151.586 0.46875C151.773 0.695312 151.867 0.996094 151.867 1.37109C151.867 1.63672 151.832 1.84375 151.762 1.99219C151.746 2.5 151.734 3.12891 151.727 3.87891C151.719 4.62109 151.711 5.41406 151.703 6.25781C151.695 7.10156 151.688 7.96094 151.68 8.83594C151.68 9.71094 151.676 10.5312 151.668 11.2969C151.668 12.0547 151.668 12.7266 151.668 13.3125C151.668 13.8984 151.668 14.3242 151.668 14.5898C151.668 15.3555 151.672 16.0469 151.68 16.6641C151.695 17.2734 151.719 17.7539 151.75 18.1055L151.961 17.9766C152.125 17.8828 152.281 17.8008 152.43 17.7305C152.586 17.6602 152.754 17.6172 152.934 17.6016C153.066 17.5859 153.203 17.6016 153.344 17.6484C153.484 17.6875 153.613 17.7578 153.73 17.8594C153.848 17.9531 153.945 18.082 154.023 18.2461C154.102 18.4102 154.141 18.6094 154.141 18.8438C154.141 19.1719 154.051 19.4375 153.871 19.6406C153.699 19.8359 153.52 19.9727 153.332 20.0508C153.145 20.1367 152.965 20.2266 152.793 20.3203C152.621 20.4062 152.445 20.4961 152.266 20.5898C152 20.7305 151.742 20.8633 151.492 20.9883C151.25 21.1133 151.035 21.1758 150.848 21.1758C150.473 21.1758 150.168 21 149.934 20.6484C149.707 20.2891 149.535 19.8125 149.418 19.2188C149.105 19.5391 148.75 19.8281 148.352 20.0859C147.953 20.3438 147.527 20.5664 147.074 20.7539C146.621 20.9414 146.145 21.0859 145.645 21.1875C145.152 21.2891 144.656 21.3398 144.156 21.3398C143.141 21.3398 142.219 21.1484 141.391 20.7656C140.57 20.3828 139.867 19.8594 139.281 19.1953C138.695 18.5312 138.242 17.7539 137.922 16.8633C137.602 15.9648 137.441 15 137.441 13.9688ZM140.055 13.9688C140.055 14.5859 140.152 15.1875 140.348 15.7734C140.543 16.3516 140.824 16.8672 141.191 17.3203C141.566 17.7734 142.02 18.1367 142.551 18.4102C143.082 18.6836 143.684 18.8203 144.355 18.8203C144.871 18.8203 145.387 18.7383 145.902 18.5742C146.418 18.4023 146.891 18.1641 147.32 17.8594C147.758 17.5469 148.137 17.1719 148.457 16.7344C148.777 16.2891 148.996 15.7891 149.113 15.2344C149.113 14.9141 149.113 14.6523 149.113 14.4492C149.113 14.2461 149.109 14.0742 149.102 13.9336C149.102 13.7852 149.102 13.6523 149.102 13.5352C149.102 13.4102 149.102 13.2695 149.102 13.1133C148.977 12.5508 148.773 12.0273 148.492 11.543C148.219 11.0508 147.883 10.625 147.484 10.2656C147.086 9.90625 146.637 9.625 146.137 9.42188C145.645 9.21094 145.121 9.10547 144.566 9.10547C143.918 9.10547 143.316 9.22266 142.762 9.45703C142.215 9.69141 141.738 10.0234 141.332 10.4531C140.934 10.875 140.621 11.3867 140.395 11.9883C140.168 12.582 140.055 13.2422 140.055 13.9688Z" fill="url(#paint9_linear_1_14)"/>
<path d="M155.969 17.9648C155.969 17.7852 156.012 17.6211 156.098 17.4727C156.184 17.3242 156.289 17.1992 156.414 17.0977C156.547 16.9883 156.691 16.9062 156.848 16.8516C157.004 16.7891 157.156 16.7578 157.305 16.7578C157.484 16.7578 157.637 16.7773 157.762 16.8164C157.887 16.8555 157.996 16.9102 158.09 16.9805C158.184 17.0508 158.266 17.1328 158.336 17.2266C158.406 17.3203 158.48 17.4219 158.559 17.5312C158.871 18 159.328 18.3633 159.93 18.6211C160.531 18.8711 161.316 18.9961 162.285 18.9961C162.684 18.9961 163.059 18.9609 163.41 18.8906C163.77 18.8203 164.082 18.7148 164.348 18.5742C164.621 18.4336 164.836 18.2617 164.992 18.0586C165.156 17.8555 165.238 17.6211 165.238 17.3555C165.238 16.9961 165.133 16.6914 164.922 16.4414C164.719 16.1914 164.445 15.9766 164.102 15.7969C163.766 15.6172 163.383 15.4648 162.953 15.3398C162.523 15.2148 162.082 15.0938 161.629 14.9766C161.215 14.875 160.797 14.7656 160.375 14.6484C159.953 14.5234 159.543 14.3828 159.145 14.2266C158.746 14.0625 158.371 13.8711 158.02 13.6523C157.676 13.4258 157.375 13.1602 157.117 12.8555C156.859 12.5508 156.652 12.1992 156.496 11.8008C156.348 11.3945 156.273 10.9297 156.273 10.4062C156.273 9.70312 156.438 9.10938 156.766 8.625C157.102 8.13281 157.531 7.73438 158.055 7.42969C158.586 7.125 159.176 6.90625 159.824 6.77344C160.473 6.63281 161.109 6.5625 161.734 6.5625C162.094 6.5625 162.422 6.58203 162.719 6.62109C163.016 6.66016 163.293 6.71094 163.551 6.77344C163.809 6.83594 164.055 6.91406 164.289 7.00781C164.523 7.09375 164.758 7.18359 164.992 7.27734C165.023 7.16016 165.07 7.04297 165.133 6.92578C165.203 6.80078 165.285 6.69141 165.379 6.59766C165.473 6.49609 165.582 6.41406 165.707 6.35156C165.832 6.28906 165.973 6.25781 166.129 6.25781C166.512 6.25781 166.809 6.33203 167.02 6.48047C167.23 6.62891 167.336 6.89062 167.336 7.26562C167.336 7.5625 167.324 7.87109 167.301 8.19141C167.277 8.51172 167.266 8.86328 167.266 9.24609C167.305 9.33984 167.332 9.44531 167.348 9.5625C167.363 9.67188 167.371 9.76953 167.371 9.85547C167.371 10.043 167.34 10.2031 167.277 10.3359C167.215 10.4609 167.129 10.5664 167.02 10.6523C166.91 10.7305 166.781 10.7891 166.633 10.8281C166.492 10.8672 166.336 10.8867 166.164 10.8867C166.008 10.8867 165.855 10.8594 165.707 10.8047C165.566 10.75 165.438 10.6797 165.32 10.5938C165.203 10.5 165.102 10.3945 165.016 10.2773C164.93 10.1602 164.863 10.0391 164.816 9.91406C164.691 9.8125 164.531 9.69922 164.336 9.57422C164.148 9.44141 163.922 9.32031 163.656 9.21094C163.398 9.10156 163.102 9.01172 162.766 8.94141C162.43 8.86328 162.059 8.82422 161.652 8.82422C161.254 8.82422 160.883 8.86328 160.539 8.94141C160.203 9.01172 159.91 9.11719 159.66 9.25781C159.418 9.39844 159.227 9.56641 159.086 9.76172C158.945 9.95703 158.875 10.1758 158.875 10.418C158.875 10.7305 158.969 11 159.156 11.2266C159.352 11.4453 159.609 11.6406 159.93 11.8125C160.25 11.9766 160.621 12.125 161.043 12.2578C161.473 12.3906 161.918 12.5195 162.379 12.6445C163.012 12.8164 163.648 13.0078 164.289 13.2188C164.938 13.4297 165.52 13.7031 166.035 14.0391C166.559 14.3672 166.984 14.7852 167.312 15.293C167.641 15.793 167.805 16.4219 167.805 17.1797C167.805 17.7656 167.715 18.2734 167.535 18.7031C167.355 19.1328 167.117 19.5039 166.82 19.8164C166.523 20.1211 166.176 20.375 165.777 20.5781C165.387 20.7734 164.977 20.9258 164.547 21.0352C164.125 21.1523 163.695 21.2305 163.258 21.2695C162.82 21.3164 162.406 21.3398 162.016 21.3398C161.469 21.3398 160.941 21.2891 160.434 21.1875C159.926 21.0859 159.445 20.9492 158.992 20.7773C158.547 20.6055 158.137 20.4062 157.762 20.1797C157.395 19.9531 157.078 19.7148 156.812 19.4648C156.547 19.2148 156.34 18.9609 156.191 18.7031C156.043 18.4453 155.969 18.1992 155.969 17.9648Z" fill="url(#paint10_linear_1_14)"/>
<defs>
<linearGradient id="paint0_linear_1_14" x1="89.1938" y1="38.1998" x2="89.1938" y2="-27.4789" gradientUnits="userSpaceOnUse">
<stop stop-color="#E7E61A"/>
<stop offset="1" stop-color="#B03535"/>
</linearGradient>
<linearGradient id="paint1_linear_1_14" x1="89.1938" y1="38.1998" x2="89.1938" y2="-27.4789" gradientUnits="userSpaceOnUse">
<stop stop-color="#E7E61A"/>
<stop offset="1" stop-color="#B03535"/>
</linearGradient>
<linearGradient id="paint2_linear_1_14" x1="89.1938" y1="38.1998" x2="89.1938" y2="-27.4789" gradientUnits="userSpaceOnUse">
<stop stop-color="#E7E61A"/>
<stop offset="1" stop-color="#B03535"/>
</linearGradient>
<linearGradient id="paint3_linear_1_14" x1="89.1938" y1="38.1998" x2="89.1938" y2="-27.4789" gradientUnits="userSpaceOnUse">
<stop stop-color="#E7E61A"/>
<stop offset="1" stop-color="#B03535"/>
</linearGradient>
<linearGradient id="paint4_linear_1_14" x1="89.1938" y1="38.1998" x2="89.1938" y2="-27.4789" gradientUnits="userSpaceOnUse">
<stop stop-color="#E7E61A"/>
<stop offset="1" stop-color="#B03535"/>
</linearGradient>
<linearGradient id="paint5_linear_1_14" x1="89.1938" y1="38.1998" x2="89.1938" y2="-27.4789" gradientUnits="userSpaceOnUse">
<stop stop-color="#E7E61A"/>
<stop offset="1" stop-color="#B03535"/>
</linearGradient>
<linearGradient id="paint6_linear_1_14" x1="89.1938" y1="38.1998" x2="89.1938" y2="-27.4789" gradientUnits="userSpaceOnUse">
<stop stop-color="#E7E61A"/>
<stop offset="1" stop-color="#B03535"/>
</linearGradient>
<linearGradient id="paint7_linear_1_14" x1="89.1938" y1="38.1998" x2="89.1938" y2="-27.4789" gradientUnits="userSpaceOnUse">
<stop stop-color="#E7E61A"/>
<stop offset="1" stop-color="#B03535"/>
</linearGradient>
<linearGradient id="paint8_linear_1_14" x1="89.1938" y1="38.1998" x2="89.1938" y2="-27.4789" gradientUnits="userSpaceOnUse">
<stop stop-color="#E7E61A"/>
<stop offset="1" stop-color="#B03535"/>
</linearGradient>
<linearGradient id="paint9_linear_1_14" x1="89.1938" y1="38.1998" x2="89.1938" y2="-27.4789" gradientUnits="userSpaceOnUse">
<stop stop-color="#E7E61A"/>
<stop offset="1" stop-color="#B03535"/>
</linearGradient>
<linearGradient id="paint10_linear_1_14" x1="89.1938" y1="38.1998" x2="89.1938" y2="-27.4789" gradientUnits="userSpaceOnUse">
<stop stop-color="#E7E61A"/>
<stop offset="1" stop-color="#B03535"/>
</linearGradient>
</defs>
</svg>
