<svg width="45" height="16" viewBox="0 0 45 16" fill="none" xmlns="http://www.w3.org/2000/svg">
<path d="M10.14 15L9.68 10.4L6.12 10.72L5.7 15H1.8L0.6 2.88H6.9L6.44 7.5H9.4L8.94 2.88H15.24L14.04 15H10.14ZM21.1998 5.8L21.5398 5.68L20.8598 15H17.0798L16.4398 5.68C17.1998 5.98667 18.0065 6.14 18.8598 6.14C19.7265 6.14 20.5065 6.02667 21.1998 5.8ZM18.9798 5.26C18.3132 5.26 17.7532 5.06 17.2998 4.66C16.8465 4.26 16.6198 3.74 16.6198 3.1C16.6198 2.44667 16.8398 1.92667 17.2798 1.54C17.7332 1.14 18.2932 0.94 18.9598 0.94C19.6398 0.94 20.2065 1.14 20.6598 1.54C21.1132 1.94 21.3398 2.46 21.3398 3.1C21.3398 3.74 21.1132 4.26 20.6598 4.66C20.2065 5.06 19.6465 5.26 18.9798 5.26ZM22.6484 10.04C22.6484 9.12 22.7751 8.32667 23.0284 7.66C23.2951 6.99333 23.6418 6.49333 24.0684 6.16C24.8551 5.54667 25.7284 5.24 26.6884 5.24C27.1684 5.24 27.6084 5.34 28.0084 5.54C28.4218 5.72667 28.7084 5.92 28.8684 6.12L29.1084 6.4L28.9484 2.02H33.5084L32.9684 15H29.9684L29.6284 13.7C28.8284 14.6867 27.8418 15.18 26.6684 15.18C25.5084 15.1933 24.5484 14.76 23.7884 13.88C23.0284 13 22.6484 11.72 22.6484 10.04ZM27.9684 7.92C27.1818 7.92 26.7884 8.72 26.7884 10.32C26.7884 10.6133 26.8084 10.8933 26.8484 11.16C26.8884 11.4267 27.0084 11.7067 27.2084 12C27.4084 12.2933 27.7018 12.44 28.0884 12.44C28.4751 12.44 28.7684 12.2267 28.9684 11.8C29.1818 11.36 29.2884 10.8667 29.2884 10.32C29.2884 8.72 28.8484 7.92 27.9684 7.92ZM39.9216 15.2C38.4149 15.2 37.1482 14.7667 36.1216 13.9C35.1082 13.02 34.6016 11.7333 34.6016 10.04C34.6016 8.97333 34.8616 8.06667 35.3816 7.32C36.3282 5.93333 37.7949 5.24 39.7816 5.24C41.3016 5.24 42.4616 5.54667 43.2616 6.16C44.0616 6.76 44.4616 7.59333 44.4616 8.66C44.4616 9.48667 44.1282 10.16 43.4616 10.68C42.8082 11.1867 41.8482 11.44 40.5816 11.44C40.0616 11.44 39.5949 11.4 39.1816 11.32L38.9616 11.28C39.0282 11.76 39.2349 12.12 39.5816 12.36C39.9416 12.5867 40.3682 12.7 40.8616 12.7C41.6749 12.7 42.3682 12.4533 42.9416 11.96L44.1816 13.46C43.9682 13.7133 43.7149 13.9533 43.4216 14.18C43.1282 14.3933 42.6616 14.62 42.0216 14.86C41.3816 15.0867 40.6816 15.2 39.9216 15.2ZM41.5416 8.48C41.5416 8.21333 41.4349 7.99333 41.2216 7.82C41.0216 7.64667 40.7416 7.56 40.3816 7.56C40.0216 7.56 39.6816 7.72 39.3616 8.04C39.0549 8.36 38.9016 8.74 38.9016 9.18C39.1949 9.31333 39.5749 9.38 40.0416 9.38C40.5216 9.38 40.8882 9.3 41.1416 9.14C41.4082 8.96667 41.5416 8.74667 41.5416 8.48Z" fill="url(#paint0_linear_1_74)"/>
<defs>
<linearGradient id="paint0_linear_1_74" x1="23.8787" y1="24.5302" x2="23.8787" y2="-12.6016" gradientUnits="userSpaceOnUse">
<stop stop-color="#E7E61A"/>
<stop offset="1" stop-color="#B03535"/>
</linearGradient>
</defs>
</svg>
