<svg width="51" height="14" viewBox="0 0 51 14" fill="none" xmlns="http://www.w3.org/2000/svg">
<path d="M1.5 13L0.5 0.88H7.98L10.24 6.82L12.5 0.88H19.3L18.3 13H14.2L13.48 5.78L10.72 13H7.48L4.72 5.78L4.12 13H1.5ZM21.7447 12.02C20.7847 11.22 20.3047 9.95333 20.3047 8.22C20.3047 6.48667 20.7847 5.22667 21.7447 4.44C22.718 3.64 24.0114 3.24 25.6247 3.24C27.238 3.24 28.5247 3.64 29.4847 4.44C30.458 5.22667 30.9447 6.48667 30.9447 8.22C30.9447 9.95333 30.458 11.22 29.4847 12.02C28.5247 12.8067 27.238 13.2 25.6247 13.2C24.0114 13.2 22.718 12.8067 21.7447 12.02ZM24.7847 5.96C24.6247 6.41333 24.5447 7.16667 24.5447 8.22C24.5447 9.27333 24.6247 10.0333 24.7847 10.5C24.9447 10.9533 25.2247 11.18 25.6247 11.18C26.0247 11.18 26.3047 10.9533 26.4647 10.5C26.6247 10.0333 26.7047 9.27333 26.7047 8.22C26.7047 7.16667 26.6247 6.41333 26.4647 5.96C26.3047 5.49333 26.0247 5.26 25.6247 5.26C25.2247 5.26 24.9447 5.49333 24.7847 5.96ZM36.4853 4.82C37.192 3.76667 38.0653 3.24 39.1053 3.24C39.5986 3.24 40.052 3.36 40.4653 3.6L39.9853 6.88C39.452 6.50667 38.852 6.32 38.1853 6.32C37.5453 6.32 37.112 6.58667 36.8853 7.12C36.752 7.45333 36.6653 7.77333 36.6253 8.08L36.2453 13H32.6453L32.0453 3.52H35.9853L36.4853 4.82ZM46.2888 13.2C44.7821 13.2 43.5154 12.7667 42.4888 11.9C41.4754 11.02 40.9688 9.73333 40.9688 8.04C40.9688 6.97333 41.2288 6.06667 41.7488 5.32C42.6954 3.93333 44.1621 3.24 46.1488 3.24C47.6688 3.24 48.8288 3.54667 49.6288 4.16C50.4288 4.76 50.8288 5.59333 50.8288 6.66C50.8288 7.48667 50.4954 8.16 49.8288 8.68C49.1754 9.18667 48.2154 9.44 46.9488 9.44C46.4288 9.44 45.9621 9.4 45.5488 9.32L45.3288 9.28C45.3954 9.76 45.6021 10.12 45.9488 10.36C46.3088 10.5867 46.7354 10.7 47.2288 10.7C48.0421 10.7 48.7354 10.4533 49.3088 9.96L50.5488 11.46C50.3354 11.7133 50.0821 11.9533 49.7888 12.18C49.4954 12.3933 49.0288 12.62 48.3888 12.86C47.7488 13.0867 47.0488 13.2 46.2888 13.2ZM47.9088 6.48C47.9088 6.21333 47.8021 5.99333 47.5888 5.82C47.3888 5.64667 47.1088 5.56 46.7488 5.56C46.3888 5.56 46.0488 5.72 45.7288 6.04C45.4221 6.36 45.2688 6.74 45.2688 7.18C45.5621 7.31333 45.9421 7.38 46.4088 7.38C46.8888 7.38 47.2554 7.3 47.5088 7.14C47.7754 6.96667 47.9088 6.74667 47.9088 6.48Z" fill="url(#paint0_linear_1_40)"/>
<defs>
<linearGradient id="paint0_linear_1_40" x1="27.5932" y1="22.5302" x2="27.5931" y2="-14.6016" gradientUnits="userSpaceOnUse">
<stop stop-color="#E7E61A"/>
<stop offset="1" stop-color="#B03535"/>
</linearGradient>
</defs>
</svg>
