<svg>

  <symbol width="27" height="24" id="arrow" viewBox="0 0 27 24" fill="none" xmlns="http://www.w3.org/2000/svg">
    <path d="M26.0607 13.0607C26.6464 12.4749 26.6464 11.5251 26.0607 10.9393L16.5147 1.3934C15.9289 0.807611 14.9792 0.807611 14.3934 1.3934C13.8076 1.97919 13.8076 2.92893 14.3934 3.51472L22.8787 12L14.3934 20.4853C13.8076 21.0711 13.8076 22.0208 14.3934 22.6066C14.9792 23.1924 15.9289 23.1924 16.5147 22.6066L26.0607 13.0607ZM0 13.5H25V10.5H0V13.5Z" fill="#222222"/>
  </symbol>

  <symbol width="42" height="34" id="heart" viewBox="0 0 42 34" fill="none" xmlns="http://www.w3.org/2000/svg">
  <path d="M37.701 5.1995L37.7022 5.20106C39.044 6.95919 39.7768 9.18462 39.7768 11.6708C39.7768 15.0845 37.7232 19.1197 33.1165 23.6812C29.3854 27.3756 24.9465 30.4243 22.6177 31.9213C22.0267 32.2992 21.3399 32.5 20.6384 32.5C19.9369 32.5 19.25 32.2992 18.659 31.9213C16.3291 30.4248 11.8917 27.3759 8.1603 23.6812C3.55332 19.1176 1.5 15.0843 1.5 11.6708C1.5 9.18462 2.23279 6.95919 3.57457 5.20106L3.57575 5.1995C4.84992 3.52543 6.64983 2.32823 8.68631 1.80025C10.7228 1.27226 12.8776 1.44412 14.8047 2.28824L14.8047 2.28827L14.815 2.29268C16.5448 3.03508 18.1276 4.31069 19.4368 6.06267L20.6369 7.66852L21.8389 6.06408C23.1484 4.3161 24.7323 3.03905 26.4646 2.2915L26.4646 2.29152L26.4721 2.28824C28.3991 1.44412 30.554 1.27226 32.5905 1.80025C34.627 2.32823 36.4269 3.52543 37.701 5.1995Z" stroke="#CB3D3D" stroke-width="3"/>
  </symbol>

</svg>