<svg>

  <symbol width="27" height="24" id="arrow" viewBox="0 0 27 24" fill="none" xmlns="http://www.w3.org/2000/svg">
    <path d="M26.0607 13.0607C26.6464 12.4749 26.6464 11.5251 26.0607 10.9393L16.5147 1.3934C15.9289 0.807611 14.9792 0.807611 14.3934 1.3934C13.8076 1.97919 13.8076 2.92893 14.3934 3.51472L22.8787 12L14.3934 20.4853C13.8076 21.0711 13.8076 22.0208 14.3934 22.6066C14.9792 23.1924 15.9289 23.1924 16.5147 22.6066L26.0607 13.0607ZM0 13.5H25V10.5H0V13.5Z" fill="#222222"/>
  </symbol>

  <symbol width="42" height="34" id="heart" viewBox="0 0 42 34" fill="none" xmlns="http://www.w3.org/2000/svg">
    <path d="M37.7022 5.20106L37.701 5.1995C36.4269 3.52543 34.627 2.32823 32.5905 1.80025C30.554 1.27226 28.3991 1.44412 26.4721 2.28824L26.4646 2.29152L26.4646 2.2915C24.7323 3.03905 23.1484 4.3161 21.8389 6.06408L20.6369 7.66852L19.4368 6.06267C18.1276 4.31069 16.5448 3.03508 14.815 2.29268L14.8047 2.28827L14.8047 2.28824C12.8776 1.44412 10.7228 1.27226 8.68631 1.80025C6.64983 2.32823 4.84992 3.52543 3.57575 5.1995L3.57457 5.20106C2.23279 6.95919 1.5 9.18462 1.5 11.6708C1.5 15.0843 3.55332 19.1176 8.1603 23.6812L37.7022 5.20106ZM37.7022 5.20106C39.044 6.95919 39.7768 9.18462 39.7768 11.6708C39.7768 15.0845 37.7232 19.1197 33.1165 23.6812C29.3854 27.3756 24.9465 30.4243 22.6177 31.9213C22.0267 32.2992 21.3399 32.5 20.6384 32.5C19.937 32.5 19.2504 32.2993 18.6595 31.9215M37.7022 5.20106L18.6595 31.9215M18.6595 31.9215C16.3297 30.4251 11.8921 27.3763 8.16053 23.6815L18.6595 31.9215Z" stroke="#CB3D3D" stroke-width="3"/>
  </symbol>

</svg>